{
    "asset" : {
        "generator" : "Khronos glTF Blender I/O v1.2.75",
        "version" : "2.0"
    },
    "scene" : 0,
    "scenes" : [
        {
            "name" : "Scene",
            "nodes" : [
                0
            ]
        }
    ],
    "nodes" : [
        {
            "mesh" : 0,
            "name" : "node_MeshObject-1387696064-PolyPaper21",
            "translation" : [
                0,
                1.1690444946289062,
                0
            ]
        }
    ],
    "materials" : [
        {
            "emissiveFactor" : [
                0,
                0,
                0
            ],
            "name" : "BlocksPaper",
            "pbrMetallicRoughness" : {
                "metallicFactor" : 0,
                "roughnessFactor" : 0.6000000238418579
            }
        }
    ],
    "meshes" : [
        {
            "name" : "mesh_m0-PolyPaper21_-83960",
            "primitives" : [
                {
                    "attributes" : {
                        "POSITION" : 0,
                        "NORMAL" : 1,
                        "COLOR_0" : 2
                    },
                    "indices" : 3,
                    "material" : 0
                }
            ]
        }
    ],
    "accessors" : [
        {
            "bufferView" : 0,
            "componentType" : 5126,
            "count" : 2394,
            "max" : [
                1.1378352642059326,
                0.9458070397377014,
                -0.8368110060691833
            ],
            "min" : [
                -0.07295603305101395,
                -2.491607189178467,
                -1.5248924493789673
            ],
            "type" : "VEC3"
        },
        {
            "bufferView" : 1,
            "componentType" : 5126,
            "count" : 2394,
            "type" : "VEC3"
        },
        {
            "bufferView" : 2,
            "componentType" : 5126,
            "count" : 2394,
            "type" : "VEC4"
        },
        {
            "bufferView" : 3,
            "componentType" : 5123,
            "count" : 2400,
            "type" : "SCALAR"
        }
    ],
    "bufferViews" : [
        {
            "buffer" : 0,
            "byteLength" : 28728,
            "byteOffset" : 0
        },
        {
            "buffer" : 0,
            "byteLength" : 28728,
            "byteOffset" : 28728
        },
        {
            "buffer" : 0,
            "byteLength" : 38304,
            "byteOffset" : 57456
        },
        {
            "buffer" : 0,
            "byteLength" : 4800,
            "byteOffset" : 95760
        }
    ],
    "buffers" : [
        {
            "byteLength" : 100560,
            "uri" : "data:application/octet-stream;base64,"
        }
    ]
}
